<svg width="12" height="12" viewBox="0 0 12 12" fill="none" xmlns="http://www.w3.org/2000/svg">
<path d="M11.8082 3.04847L11.4151 2.65266C11.2914 2.52905 11.1268 2.46095 10.9509 2.46095C10.7751 2.46095 10.6103 2.52905 10.4866 2.65266L6.00268 7.13679L1.51357 2.64768C1.39006 2.52407 1.22528 2.45607 1.04947 2.45607C0.873666 2.45607 0.708786 2.52407 0.585176 2.64768L0.192002 3.04105C-0.0640005 3.29686 -0.0640005 3.71354 0.192002 3.96935L5.53683 9.33339C5.66034 9.45691 5.82493 9.54393 6.00229 9.54393H6.00434C6.18025 9.54393 6.34483 9.45681 6.46835 9.33339L11.8082 3.98389C11.9319 3.86037 11.9998 3.69081 12 3.51501C12 3.3391 11.9319 3.17188 11.8082 3.04847Z" fill="#E23030"/>
</svg>
