<svg width="10" height="10" viewBox="0 0 10 10" fill="none" xmlns="http://www.w3.org/2000/svg">
<path d="M5.91617 5.00819L9.80998 1.11426C10.0634 0.860981 10.0634 0.451456 9.80998 0.198172C9.5567 -0.0551117 9.14717 -0.0551117 8.89389 0.198172L4.99996 4.0921L1.10615 0.198172C0.852743 -0.0551117 0.443336 -0.0551117 0.190052 0.198172C-0.0633507 0.451456 -0.0633507 0.860981 0.190052 1.11426L4.08387 5.00819L0.190052 8.90212C-0.0633507 9.1554 -0.0633507 9.56493 0.190052 9.81821C0.316279 9.94455 0.482248 10.008 0.648099 10.008C0.81395 10.008 0.9798 9.94455 1.10615 9.81821L4.99996 5.92428L8.89389 9.81821C9.02024 9.94455 9.18609 10.008 9.35194 10.008C9.51779 10.008 9.68364 9.94455 9.80998 9.81821C10.0634 9.56493 10.0634 9.1554 9.80998 8.90212L5.91617 5.00819Z" fill="#E23030"/>
</svg>
