<svg width="18" height="18" viewBox="0 0 18 18" fill="none" xmlns="http://www.w3.org/2000/svg">
<g clip-path="url(#clip0)">
<path d="M7.61541 0H0.69231C0.309946 0 0 0.309946 0 0.69231V7.61541C0 7.99778 0.309946 8.30772 0.69231 8.30772H7.61541C7.99778 8.30772 8.30772 7.99778 8.30772 7.61541V0.69231C8.30772 0.309946 7.99778 0 7.61541 0Z" fill="#E23030"/>
<path d="M17.3077 0H10.3846C10.0022 0 9.69226 0.309946 9.69226 0.69231V7.61541C9.69226 7.99778 10.0022 8.30772 10.3846 8.30772H17.3077C17.69 8.30772 18 7.99778 18 7.61541V0.69231C18 0.309946 17.69 0 17.3077 0Z" fill="#E23030"/>
<path d="M7.61541 9.69234H0.69231C0.309946 9.69234 0 10.0023 0 10.3847V17.3078C0 17.6901 0.309946 18.0001 0.69231 18.0001H7.61541C7.99778 18.0001 8.30772 17.6901 8.30772 17.3078V10.3847C8.30772 10.0023 7.99778 9.69234 7.61541 9.69234Z" fill="#E23030"/>
<path d="M17.3077 9.69234H10.3846C10.0022 9.69234 9.69226 10.0023 9.69226 10.3847V17.3078C9.69226 17.6901 10.0022 18.0001 10.3846 18.0001H17.3077C17.69 18.0001 18 17.6901 18 17.3078V10.3847C18 10.0023 17.69 9.69234 17.3077 9.69234Z" fill="#E23030"/>
</g>
<defs>
<clipPath id="clip0">
<rect width="18" height="18" fill="white"/>
</clipPath>
</defs>
</svg>
