<svg width="20" height="20" viewBox="0 0 20 20" fill="none" xmlns="http://www.w3.org/2000/svg">
<path d="M10.0002 2.45428C4.47737 2.45428 0 6.97414 0 12.5497C0 15.573 1.30469 17.5447 1.30469 17.5447L18.6915 17.5455C18.6915 17.5455 20 15.3907 20 12.5495C20 6.97414 15.5226 2.45428 10.0002 2.45428ZM17.9581 16.3156L2.07397 16.3087C2.07397 16.3087 1.22758 14.7058 1.22758 12.5179C1.22758 7.63109 5.17016 3.66928 10.0337 3.66928C14.8971 3.66928 18.8399 7.63089 18.8399 12.5179C18.8401 14.7306 17.9581 16.3156 17.9581 16.3156Z" fill="#E23030"/>
<path d="M12.8262 5.13508L12.7007 5.13488L10.0333 10.3618L7.26986 5.09024L3.48633 14.6134H2.50854V15.3783H7.86521V14.6134H6.80234L7.86521 11.6371L10.0333 15.3783L12.1165 11.6371L13.1791 14.6134H12.1165V15.3783H17.4304V14.6134H16.5098L12.8262 5.13508Z" fill="#E23030"/>
</svg>
