<svg width="18" height="18" viewBox="0 0 18 18" fill="none" xmlns="http://www.w3.org/2000/svg">
<path d="M13.2094 11.6186C14.0951 10.409 14.6249 8.92323 14.6249 7.31256C14.6249 3.28059 11.3444 7.62939e-05 7.31245 7.62939e-05C3.28048 7.62939e-05 0 3.28059 0 7.31256C0 11.3445 3.28052 14.625 7.31248 14.625C8.92315 14.625 10.409 14.0952 11.6186 13.2094L16.4092 18L18 16.4092C18 16.4091 13.2094 11.6186 13.2094 11.6186ZM7.31248 12.375C4.52086 12.375 2.25001 10.1042 2.25001 7.31256C2.25001 4.52093 4.52086 2.25008 7.31248 2.25008C10.1041 2.25008 12.375 4.52093 12.375 7.31256C12.375 10.1042 10.1041 12.375 7.31248 12.375Z" fill="white"/>
</svg>
